<svg width="800" height="800" viewBox="0 0 24 24" xmlns="http://www.w3.org/2000/svg" fill="none"><path opacity=".5" d="M11.999 2c4.714 0 7.071 0 8.536 1.464.758.757 1.123 1.754 1.3 3.192v3.344h-19.67v-3.344c.177-1.438.542-2.434 1.3-3.192 1.464-1.464 3.821-1.464 8.536-1.464z" fill="#1C274C"/><path fill-rule="evenodd" clip-rule="evenodd" d="M2 14c0-2.8 0-4.2.545-5.27.479-.941 1.244-1.706 2.185-2.185 1.07-.545 2.47-.545 5.27-.545h4c2.8 0 4.2 0 5.27.545.941.479 1.706 1.244 2.185 2.185.545 1.07.545 2.47.545 5.27 0 2.8 0 4.2-.545 5.27-.479.941-1.244 1.706-2.185 2.185-1.07.545-2.47.545-5.27.545h-4c-2.8 0-4.2 0-5.27-.545-.941-.479-1.706-1.244-2.185-2.185-.545-1.07-.545-2.47-.545-5.27zm10.75-3c0-.414-.336-.75-.75-.75s-.75.336-.75.75v4.189l-1.22-1.22c-.293-.293-.768-.293-1.061 0-.293.293-.293.768 0 1.061l2.5 2.5c.141.141.331.22.53.22s.39-.079.53-.22l2.5-2.5c.293-.293.293-.768 0-1.061-.293-.293-.768-.293-1.061 0l-1.22 1.22v-4.189z" fill="#1C274C"/></svg>