<svg width="800" height="800" viewBox="0 0 24 24" xmlns="http://www.w3.org/2000/svg" fill="none"><path fill-rule="evenodd" clip-rule="evenodd" d="M3.464 3.464c-1.464 1.464-1.464 3.821-1.464 8.536 0 4.714 0 7.071 1.464 8.535 1.464 1.465 3.821 1.465 8.536 1.465 4.714 0 7.071 0 8.535-1.465 1.465-1.464 1.465-3.822 1.465-8.535 0-4.714 0-7.071-1.465-8.536-1.464-1.464-3.822-1.464-8.535-1.464-4.714 0-7.071 0-8.536 1.464zm7.283 2.529c.003.414-.33.753-.744.756-.856.007-1.454.036-1.903.124-.429.084-.666.212-.84.386-.174.174-.302.412-.386.84-.088.45-.116 1.048-.124 1.903-.004.414-.342.747-.756.744-.414-.004-.747-.342-.744-.756.007-.851.034-1.577.152-2.179.122-.623.352-1.167.798-1.613.446-.446.989-.676 1.613-.798.602-.118 1.328-.144 2.179-.152.414-.004.753.329.756.744zm2.503 0c.004-.414.342-.747.756-.744.851.007 1.577.034 2.179.152.623.122 1.167.352 1.613.798.446.446.676.989.798 1.613.118.602.144 1.328.151 2.179.004.414-.329.753-.744.756-.414.003-.753-.33-.756-.744-.007-.856-.035-1.454-.124-1.903-.084-.429-.212-.666-.386-.84-.174-.174-.412-.302-.84-.386-.45-.088-1.047-.116-1.903-.124-.414-.004-.747-.342-.744-.756zm-6.5 8.001c-.004-.414-.342-.747-.756-.744-.414.004-.747.342-.744.756.007.851.034 1.577.152 2.179.122.623.352 1.167.798 1.613.446.446.989.676 1.613.798.602.118 1.328.144 2.179.152.414.003.753-.329.756-.744.003-.414-.33-.753-.744-.756-.856-.007-1.454-.036-1.903-.124-.429-.084-.666-.212-.84-.386-.174-.174-.302-.412-.386-.84-.088-.45-.116-1.048-.124-1.903zm11.254-.744c.414.004.747.342.744.756-.007.851-.034 1.577-.151 2.179-.122.623-.352 1.167-.798 1.613-.446.446-.989.676-1.613.798-.602.118-1.328.144-2.179.152-.414.003-.753-.329-.756-.744-.003-.414.329-.753.744-.756.856-.007 1.454-.036 1.903-.124.429-.084.666-.212.84-.386.174-.174.302-.412.386-.84.088-.45.116-1.048.124-1.903.004-.414.342-.747.756-.744z" fill="#1C274C"/></svg>