<svg width="800" height="800" viewBox="0 0 24 24" xmlns="http://www.w3.org/2000/svg"><title>ic_fluent_tabs_24_filled</title><desc>Created with Sketch.</desc><path d="M18.75 7.999c1.733 0 3.149 1.356 3.245 3.066l.005.184v7.5c0 1.733-1.356 3.149-3.066 3.245l-.184.005h-7.5c-1.733 0-3.149-1.356-3.245-3.066l-.005-.184v-7.5c0-1.733 1.356-3.149 3.066-3.245l.184-.005h7.5zm-3-2.999c1.351 0 2.51.825 3 1.998l-7.5.001c-2.347 0-4.25 1.903-4.25 4.25v7.502c-1.121-.467-1.924-1.544-1.995-2.817l-.005-.184v-7.5c0-1.733 1.356-3.149 3.066-3.245l.184-.005h7.5zm-3-3c1.3 0 2.421.763 2.941 1.866l.059.134h-7.5l-.212.006c-2.273.127-4.038 1.987-4.038 4.244v7.501c-1.121-.467-1.924-1.544-1.995-2.817l-.005-.184v-7.5c0-1.733 1.356-3.149 3.066-3.245l.184-.005h7.5z" fill="#212121" fill-rule="nonzero"/></svg>